<svg width="870" height="810" viewBox="0 0 870 810" fill="none" xmlns="http://www.w3.org/2000/svg">
<rect x="0.959106" width="869" height="810" rx="405" fill="#212439"/>
<path d="M513.725 318.821V332.821H527.725V318.821H513.725ZM479.725 313.821L466.294 317.771L466.305 317.807L466.315 317.843L479.725 313.821ZM474.725 280.821L488.653 279.399L487.369 266.821H474.725V280.821ZM390.725 280.821V266.821H376.725V280.821H390.725ZM390.725 561.821H376.725V573.68L388.423 575.63L390.725 561.821ZM396.725 562.821L399.413 549.081L399.22 549.043L399.027 549.011L396.725 562.821ZM421.725 567.821L425.748 554.411L425.436 554.317L425.12 554.239L421.725 567.821ZM426.725 597.821V611.821H440.725V597.821H426.725ZM305.725 597.821H291.725V611.821H305.725V597.821ZM307.725 570.321L296.97 561.358L296.88 561.466L296.793 561.575L307.725 570.321ZM314.225 566.821L315.961 580.712L316.469 580.649L316.971 580.549L314.225 566.821ZM341.725 561.321L344.471 575.049L355.725 572.798V561.321H341.725ZM341.725 280.321H355.725V266.321H341.725V280.321ZM257.225 280.321V266.321H244.645L243.305 278.829L257.225 280.321ZM252.725 313.821L266.135 317.843L266.185 317.674L266.232 317.504L252.725 313.821ZM218.725 318.821H204.725V332.821H218.725V318.821ZM218.725 239.821V225.821H204.725V239.821H218.725ZM513.725 239.821H527.725V225.821H513.725V239.821ZM513.725 304.821H489.225V332.821H513.725V304.821ZM489.225 304.821C487.804 304.821 488.198 304.564 489.37 305.182C490.039 305.533 490.872 306.128 491.636 307.045C492.407 307.97 492.88 308.949 493.135 309.798L466.315 317.843C467.929 323.223 471.525 327.431 476.33 329.959C480.669 332.243 485.313 332.821 489.225 332.821V304.821ZM493.156 309.87C491.908 305.628 490.334 295.878 488.653 279.399L460.797 282.242C462.449 298.43 464.208 310.68 466.294 317.771L493.156 309.87ZM474.725 266.821H390.725V294.821H474.725V266.821ZM376.725 280.821V561.821H404.725V280.821H376.725ZM388.423 575.63L394.423 576.63L399.027 549.011L393.027 548.011L388.423 575.63ZM394.037 576.56C401.697 578.059 407.591 579.221 411.729 580.049C413.801 580.463 415.412 580.789 416.576 581.03C417.868 581.298 418.332 581.403 418.329 581.403L425.12 554.239C423.324 553.79 414.419 552.017 399.413 549.081L394.037 576.56ZM417.702 581.23C416.967 581.01 416.06 580.593 415.167 579.878C414.27 579.16 413.64 578.346 413.237 577.62C412.506 576.304 412.725 575.685 412.725 576.821H440.725C440.725 572.956 440.111 568.337 437.713 564.022C435.08 559.282 430.855 555.943 425.748 554.411L417.702 581.23ZM412.725 576.821V597.821H440.725V576.821H412.725ZM426.725 583.821H305.725V611.821H426.725V583.821ZM319.725 597.821V576.821H291.725V597.821H319.725ZM319.725 576.821C319.725 576.644 319.748 576.851 319.606 577.313C319.454 577.807 319.158 578.441 318.657 579.066L296.793 561.575C293.02 566.291 291.725 571.786 291.725 576.821H319.725ZM318.48 579.283C318.236 579.577 317.819 579.959 317.237 580.272C316.663 580.581 316.186 580.684 315.961 580.712L312.488 552.929C306.425 553.687 300.989 556.535 296.97 561.358L318.48 579.283ZM316.971 580.549L344.471 575.049L338.979 547.592L311.479 553.092L316.971 580.549ZM355.725 561.321V280.321H327.725V561.321H355.725ZM341.725 266.321H257.225V294.321H341.725V266.321ZM243.305 278.829C241.243 298.068 239.848 307.828 239.218 310.137L266.232 317.504C267.602 312.479 269.207 299.907 271.145 281.812L243.305 278.829ZM239.315 309.798C239.604 308.835 240.136 307.787 240.958 306.839C241.765 305.908 242.609 305.351 243.214 305.049C244.24 304.535 244.415 304.821 242.725 304.821V332.821C246.701 332.821 251.376 332.272 255.736 330.093C260.582 327.67 264.44 323.491 266.135 317.843L239.315 309.798ZM242.725 304.821H218.725V332.821H242.725V304.821ZM232.725 318.821V239.821H204.725V318.821H232.725ZM218.725 253.821H513.725V225.821H218.725V253.821ZM499.725 239.821V318.821H527.725V239.821H499.725ZM562.639 396.321V410.321H571.326L575.183 402.537L562.639 396.321ZM674.139 348.821L687.954 351.089L689.494 341.707L681.342 336.816L674.139 348.821ZM668.639 382.321L682.281 385.469L682.381 385.031L682.454 384.589L668.639 382.321ZM650.139 386.321L646.189 399.752L646.189 399.752L650.139 386.321ZM564.639 436.821L551.624 431.663L550.639 434.148V436.821H564.639ZM564.639 561.821H550.639V573.377L561.986 575.567L564.639 561.821ZM593.139 567.321L595.885 553.592L595.838 553.583L595.792 553.574L593.139 567.321ZM600.639 597.821V611.821H614.639V597.821H600.639ZM484.139 597.821H470.139V611.821H484.139V597.821ZM491.639 567.321L488.986 553.574L488.94 553.583L488.893 553.592L491.639 567.321ZM520.139 561.821L522.792 575.567L534.139 573.377V561.821H520.139ZM520.139 381.321H534.139V369.702L522.719 367.56L520.139 381.321ZM491.639 375.321L496.066 362.039L495.239 361.763L494.385 361.592L491.639 375.321ZM484.139 344.821V330.821H470.139V344.821H484.139ZM555.139 347.321L565.039 337.421L565.039 337.421L555.139 347.321ZM559.139 356.821L573.099 355.76L573.027 354.815L572.828 353.887L559.139 356.821ZM562.139 396.321L548.179 397.381L549.162 410.321H562.139V396.321ZM575.183 402.537C592.292 368.015 613.891 353.821 639.639 353.821V325.821C600.054 325.821 570.32 349.293 550.095 390.104L575.183 402.537ZM639.639 353.821C650.401 353.821 659.355 356.277 666.936 360.825L681.342 336.816C668.923 329.364 654.878 325.821 639.639 325.821V353.821ZM660.324 346.552L654.824 380.052L682.454 384.589L687.954 351.089L660.324 346.552ZM654.998 379.172C654.836 379.872 654.935 378.726 656.365 377.296C657.13 376.531 658.124 375.848 659.289 375.389C660.431 374.939 661.439 374.821 662.139 374.821V402.821C667.159 402.821 672.211 401.048 676.164 397.095C679.76 393.499 681.442 389.102 682.281 385.469L654.998 379.172ZM662.139 374.821C662.387 374.821 661.892 374.833 660.244 374.49C658.735 374.175 656.705 373.659 654.089 372.889L646.189 399.752C651.766 401.392 657.548 402.821 662.139 402.821V374.821ZM654.089 372.889C646.777 370.739 638.537 369.821 629.639 369.821V397.821C636.741 397.821 642.167 398.569 646.189 399.752L654.089 372.889ZM629.639 369.821C611.92 369.821 596.004 375.244 582.542 386.22C569.308 397.011 559.201 412.539 551.624 431.663L577.655 441.978C584.077 425.768 591.803 414.797 600.236 407.921C608.441 401.231 618.025 397.821 629.639 397.821V369.821ZM550.639 436.821V561.821H578.639V436.821H550.639ZM561.986 575.567L590.486 581.067L595.792 553.574L567.292 548.074L561.986 575.567ZM590.393 581.049C590.517 581.073 589.083 580.777 587.776 579.121C586.527 577.539 586.639 576.286 586.639 576.821H614.639C614.639 572.022 613.501 566.519 609.752 561.771C605.945 556.948 600.761 554.568 595.885 553.592L590.393 581.049ZM586.639 576.821V597.821H614.639V576.821H586.639ZM600.639 583.821H484.139V611.821H600.639V583.821ZM498.139 597.821V576.821H470.139V597.821H498.139ZM498.139 576.821C498.139 576.286 498.251 577.539 497.002 579.121C495.695 580.777 494.261 581.073 494.385 581.049L488.893 553.592C484.017 554.568 478.833 556.948 475.026 561.771C471.277 566.519 470.139 572.022 470.139 576.821H498.139ZM494.292 581.067L522.792 575.567L517.486 548.074L488.986 553.574L494.292 581.067ZM534.139 561.821V381.321H506.139V561.821H534.139ZM522.719 367.56C514.763 366.069 508.502 364.84 503.898 363.871C501.594 363.386 499.764 362.978 498.375 362.645C497.682 362.478 497.137 362.34 496.721 362.227C496.516 362.172 496.357 362.127 496.24 362.092C496.182 362.075 496.139 362.062 496.108 362.052C496.077 362.043 496.064 362.038 496.066 362.039L487.212 388.602C491.358 389.984 502.065 392.176 517.559 395.081L522.719 367.56ZM494.385 361.592C494.261 361.568 495.695 361.864 497.002 363.521C498.251 365.102 498.139 366.355 498.139 365.821H470.139C470.139 370.619 471.277 376.122 475.026 380.871C478.833 385.693 484.017 388.073 488.893 389.049L494.385 361.592ZM498.139 365.821V344.821H470.139V365.821H498.139ZM484.139 358.821H545.639V330.821H484.139V358.821ZM545.639 358.821C546.398 358.821 546.969 358.855 547.377 358.898C547.789 358.942 547.963 358.988 547.951 358.985C547.943 358.982 547.647 358.905 547.176 358.662C546.694 358.413 545.985 357.965 545.24 357.22L565.039 337.421C559.134 331.516 550.846 330.821 545.639 330.821V358.821ZM545.24 357.22C544.76 356.74 544.511 356.362 544.432 356.235C544.35 356.104 544.381 356.128 544.486 356.378C544.711 356.912 545.068 357.973 545.45 359.754L572.828 353.887C571.737 348.797 569.752 342.135 565.039 337.421L545.24 357.22ZM545.179 357.881L548.179 397.381L576.099 395.26L573.099 355.76L545.179 357.881ZM562.139 410.321H562.639V382.321H562.139V410.321Z" fill="#92CEF9"/>
</svg>
