<svg width="114" height="50" viewBox="0 0 114 50" fill="none" xmlns="http://www.w3.org/2000/svg">
<g clip-path="url(#clip0_247_663)">
<path d="M24.2642 19.7594C24.2306 19.6835 24.1753 19.6192 24.1054 19.5748C24.0354 19.5304 23.9539 19.5078 23.8711 19.5099C23.7884 19.5121 23.7081 19.5388 23.6405 19.5868C23.5729 19.6348 23.521 19.7018 23.4913 19.7794L20.1571 27.9117L7.69866 0.250007C7.66569 0.175242 7.61171 0.111764 7.54334 0.0673568C7.47498 0.0229497 7.3952 -0.000456603 7.31378 7.54757e-06H0.522937C0.452192 -0.000418291 0.382494 0.0171819 0.320362 0.0511623C0.25823 0.0851428 0.205693 0.134393 0.167664 0.194309C0.129634 0.254224 0.107355 0.322848 0.102908 0.393761C0.0984622 0.464675 0.111995 0.535563 0.14224 0.599797L17.9346 40.0798C17.9676 40.1546 18.0216 40.218 18.0899 40.2624C18.1583 40.3068 18.2381 40.3303 18.3195 40.3298H21.4665C21.5493 40.3303 21.6303 40.3061 21.6994 40.2602C21.7685 40.2144 21.8225 40.1491 21.8545 40.0724L27.4813 26.9212C27.5052 26.866 27.517 26.8063 27.5159 26.7461C27.5148 26.686 27.5009 26.6267 27.475 26.5725L24.2642 19.7594Z" fill="url(#paint0_linear_247_663)"/>
<path d="M59.3407 6.24723e-05H52.874C52.7927 -0.000491523 52.713 0.0227592 52.6447 0.0669717C52.5763 0.111184 52.5223 0.174442 52.4892 0.249012L40.1322 27.5935L30.3794 6.27001C30.3474 6.1939 30.2938 6.12896 30.2253 6.0833C30.1567 6.03763 30.0763 6.01328 29.994 6.01328C29.9118 6.01328 29.8313 6.03763 29.7628 6.0833C29.6942 6.12896 29.6406 6.1939 29.6086 6.27001L26.2901 13.7942L37.9076 40.0767C37.9403 40.152 37.9943 40.216 38.0629 40.2609C38.1315 40.3057 38.2117 40.3293 38.2935 40.3288H41.4447C41.526 40.3293 41.6058 40.3061 41.6741 40.2619C41.7425 40.2177 41.7965 40.1544 41.8296 40.0798L59.7255 0.600902C59.7562 0.536302 59.7699 0.464912 59.7654 0.393498C59.7609 0.322084 59.7382 0.253013 59.6997 0.192834C59.6611 0.132654 59.6079 0.0833602 59.5451 0.0496243C59.4823 0.0158883 59.4119 -0.00117133 59.3407 6.24723e-05Z" fill="url(#paint1_linear_247_663)"/>
<path d="M63.9299 7.96008H83.0338C83.1448 7.96008 83.2512 7.91582 83.3297 7.83702C83.4081 7.75822 83.4522 7.65135 83.4522 7.53992V0.420177C83.4522 0.308742 83.4081 0.201871 83.3297 0.123074C83.2512 0.0442772 83.1448 9.67412e-06 83.0338 9.67412e-06H67.1366C67.0553 -0.000544321 66.9756 0.0227064 66.9072 0.0669189C66.8389 0.111131 66.7848 0.17439 66.7517 0.248959L63.544 7.36029C63.5136 7.42493 63.5 7.49631 63.5047 7.56766C63.5094 7.63901 63.5322 7.70798 63.5708 7.76804C63.6095 7.8281 63.6627 7.87726 63.7256 7.91086C63.7884 7.94447 63.8588 7.96141 63.9299 7.96008Z" fill="url(#paint2_linear_247_663)"/>
<path d="M57.9068 22.3929H77.064C78.115 22.3929 79.1229 21.9736 79.8661 21.2272C80.6093 20.4808 81.0268 19.4685 81.0268 18.4129C81.0268 17.3573 80.6093 16.345 79.8661 15.5986C79.1229 14.8522 78.115 14.4329 77.064 14.4329H61.1155C61.0342 14.4323 60.9545 14.4556 60.8861 14.4998C60.8178 14.544 60.7637 14.6073 60.7306 14.6818L57.5229 21.7932C57.4926 21.8576 57.479 21.9288 57.4836 22C57.4882 22.0712 57.5108 22.14 57.5492 22.2C57.5876 22.26 57.6406 22.3092 57.7031 22.3429C57.7657 22.3767 57.8358 22.3939 57.9068 22.3929Z" fill="url(#paint3_linear_247_663)"/>
<path d="M84.2972 32.4749H52.6711C52.5876 32.4742 52.5059 32.4987 52.4364 32.5451C52.3668 32.5916 52.3127 32.6578 52.281 32.7354L49.3599 39.7396C49.3319 39.804 49.3204 39.8745 49.3266 39.9446C49.3327 40.0147 49.3563 40.0821 49.3951 40.1406C49.4339 40.1991 49.4868 40.247 49.5488 40.2797C49.6108 40.3124 49.68 40.3289 49.75 40.3278H84.2972C84.4082 40.3278 84.5146 40.2835 84.5931 40.2047C84.6715 40.1259 84.7156 40.0191 84.7156 39.9076V32.9003C84.7163 32.8447 84.706 32.7895 84.6853 32.7379C84.6645 32.6863 84.6338 32.6394 84.5949 32.5998C84.556 32.5602 84.5096 32.5288 84.4585 32.5073C84.4074 32.4859 84.3526 32.4749 84.2972 32.4749Z" fill="url(#paint4_linear_247_663)"/>
<path d="M108.631 17.6586L107.655 17.0872C107.655 17.0872 110.508 14.646 110.508 9.97688C110.508 5.30777 105.752 0.105042 96.559 0H88.6345V7.96007H99.1486C99.9933 7.97536 100.798 8.3231 101.39 8.92847C101.982 9.53384 102.314 10.3484 102.314 11.1969C102.314 12.0455 101.982 12.86 101.39 13.4654C100.798 14.0708 99.9933 14.4185 99.1486 14.4338H88.6345V22.3939H100.099C101.431 22.3939 102.708 22.9251 103.649 23.8707C104.591 24.8162 105.12 26.0987 105.12 27.4359C105.12 28.7731 104.591 30.0556 103.649 31.0011C102.708 31.9467 101.431 32.4779 100.099 32.4779H88.6345V40.3319H94.6514C97.1152 40.332 99.5725 40.0764 101.984 39.5693L104.25 39.0924C107.007 38.5135 109.481 36.9993 111.256 34.8042C113.032 32.6091 114.001 29.867 114 27.0388C114 25.1403 113.503 23.2751 112.561 21.6292C111.619 19.9833 110.264 18.6143 108.631 17.6586Z" fill="url(#paint5_linear_247_663)"/>
<path d="M26.5275 44.3057C26.9815 44.2326 27.4409 44.1974 27.9007 44.2006C28.6077 44.2006 29.1265 44.3656 29.4549 44.6628C29.6154 44.8097 29.7421 44.9901 29.8259 45.1913C29.9097 45.3926 29.9487 45.6098 29.9402 45.8277C29.9402 46.3319 29.7927 46.7279 29.5124 47.0168C29.1338 47.4223 28.5178 47.6282 27.8181 47.6282C27.6251 47.6345 27.432 47.6179 27.2429 47.5788V49.8088H26.5275V44.3057ZM27.2429 46.9895C27.4371 47.0332 27.6359 47.0526 27.8348 47.0473C28.6987 47.0473 29.2248 46.6271 29.2248 45.8582C29.2248 45.1229 28.7018 44.7679 27.9174 44.7679C27.6911 44.7615 27.4648 44.7808 27.2429 44.8256V46.9895Z" fill="black"/>
<path d="M31.6177 44.2395V47.5347C31.6177 48.7826 32.1689 49.3109 32.9083 49.3109C33.7304 49.3109 34.2565 48.7658 34.2565 47.5347V44.2395H34.9802V47.4853C34.9802 49.1954 34.0839 49.9013 32.8832 49.9013C31.7485 49.9013 30.8961 49.249 30.8961 47.5231V44.2395H31.6177Z" fill="black"/>
<path d="M36.2217 44.3141C36.6749 44.2331 37.1346 44.1944 37.5949 44.1985C38.3594 44.1985 38.85 44.3393 39.1982 44.6534C39.3422 44.7877 39.456 44.9514 39.5319 45.1334C39.6078 45.3155 39.6442 45.5117 39.6385 45.709C39.6385 46.4443 39.1784 46.9307 38.5927 47.1292V47.1544C39.0204 47.3036 39.2756 47.6996 39.4064 48.2773C39.5873 49.0536 39.7201 49.5903 39.8341 49.8057H39.0936C39.0027 49.6481 38.8845 49.1702 38.7234 48.4758C38.5592 47.708 38.2632 47.4191 37.6137 47.3939H36.9391V49.8099H36.2238L36.2217 44.3141ZM36.9371 46.8487H37.6692C38.4337 46.8487 38.9242 46.4286 38.9242 45.792C38.9242 45.0735 38.4013 44.7595 37.6493 44.7511C37.4118 44.7445 37.1745 44.7668 36.9423 44.8172L36.9371 46.8487Z" fill="black"/>
<path d="M43.5156 47.1964H41.3611V49.2038H43.7666V49.8067H40.6499V44.2395H43.6432V44.8424H41.3611V46.6019H43.5156V47.1964Z" fill="black"/>
<path d="M46.4367 44.314C46.9404 44.2377 47.449 44.199 47.9584 44.1985C48.9865 44.1985 49.7187 44.438 50.2039 44.8918C50.6892 45.3455 50.9852 45.9905 50.9852 46.8876C50.9852 47.7846 50.706 48.5388 50.1872 49.0514C49.6684 49.564 48.814 49.8529 47.7367 49.8529C47.3025 49.8565 46.8685 49.8355 46.4367 49.7899V44.314ZM47.1521 49.2363C47.3918 49.2695 47.6339 49.2832 47.8758 49.2773C49.4049 49.2773 50.2353 48.418 50.2353 46.9149C50.2437 45.6018 49.5032 44.7678 47.9909 44.7678C47.7102 44.7635 47.4297 44.7885 47.1542 44.8424L47.1521 49.2363Z" fill="black"/>
<path d="M52.6262 44.2395V49.8067H51.9108V44.2395H52.6262Z" fill="black"/>
<path d="M58.094 49.5577C57.5476 49.755 56.9719 49.8583 56.3913 49.8634C55.5546 49.8634 54.8622 49.6533 54.3194 49.1281C53.8425 48.6659 53.5486 47.9232 53.5486 47.0587C53.557 45.3991 54.6918 44.1848 56.5503 44.1848C57.0222 44.1711 57.4919 44.2555 57.9298 44.4327L57.7572 45.0188C57.3714 44.8498 56.9533 44.768 56.5325 44.7793C55.1833 44.7793 54.3037 45.6197 54.3037 47.0167C54.3037 48.4295 55.1509 49.2636 56.4415 49.2636C56.9101 49.2636 57.2311 49.1974 57.3953 49.1144V47.4547H56.2679V46.877H58.0929L58.094 49.5577Z" fill="black"/>
<path d="M59.9033 44.2395V49.8067H59.188V44.2395H59.9033Z" fill="black"/>
<path d="M62.2053 44.853H60.5194V44.2417H64.6234V44.853H62.929V49.8079H62.2053V44.853Z" fill="black"/>
<path d="M65.5197 48.0547L64.9486 49.8057H64.2082L66.0907 44.2385H66.9546L68.8456 49.8057H68.081L67.4891 48.0547H65.5197ZM67.3364 47.4927L66.7936 45.8908C66.6701 45.5274 66.5844 45.1976 66.5059 44.8751H66.4892C66.4066 45.206 66.3166 45.5442 66.21 45.8824L65.6672 47.4927H67.3364Z" fill="black"/>
<path d="M69.655 44.2395H70.3704V49.2027H72.7393V49.8057H69.655V44.2395Z" fill="black"/>
<path d="M75.2787 44.3057C75.7328 44.2326 76.1921 44.1974 76.6519 44.2006C77.3589 44.2006 77.8766 44.3656 78.2061 44.6628C78.3667 44.8097 78.4933 44.9901 78.5771 45.1913C78.661 45.3926 78.7 45.6098 78.6914 45.8277C78.6914 46.3319 78.5429 46.7279 78.2636 47.0168C77.885 47.4223 77.2679 47.6282 76.5693 47.6282C76.3759 47.6346 76.1825 47.618 75.993 47.5788V49.8088H75.2776L75.2787 44.3057ZM75.9941 46.9895C76.1883 47.0332 76.3871 47.0526 76.586 47.0473C77.4489 47.0473 77.9749 46.6271 77.9749 45.8582C77.9749 45.1229 77.452 44.7679 76.6676 44.7679C76.4413 44.7615 76.215 44.7809 75.993 44.8256L75.9941 46.9895Z" fill="black"/>
<path d="M79.6536 44.2395H80.3689V49.2027H82.7378V49.8057H79.6536V44.2395Z" fill="black"/>
<path d="M84.4311 48.0547L83.8548 49.8057H83.1154L84.998 44.2385H85.8661L87.757 49.8057H86.9925L86.4005 48.0547H84.4311ZM86.2478 47.4927L85.705 45.8908C85.5816 45.5274 85.4958 45.1976 85.4174 44.8751H85.4006C85.318 45.206 85.2281 45.5442 85.1214 45.8824L84.5786 47.4927H86.2478Z" fill="black"/>
<path d="M89.1511 49.8057V47.4433L87.3993 44.2395H88.213L88.9942 45.7752C89.2034 46.1954 89.3729 46.5347 89.5454 46.9233H89.5611C89.718 46.5599 89.9062 46.1964 90.1207 45.7752L90.9187 44.2395H91.7323L89.8738 47.4349V49.8057H89.1511Z" fill="black"/>
<path d="M95.1743 47.1964H93.0198V49.2038H95.4253V49.8067H92.3086V44.2395H95.3019V44.8424H93.024V46.6019H95.1743V47.1964Z" fill="black"/>
<path d="M96.3541 44.3141C96.8073 44.2331 97.267 44.1944 97.7273 44.1985C98.4918 44.1985 98.9823 44.3393 99.3306 44.6534C99.474 44.7882 99.587 44.9522 99.6622 45.1345C99.7374 45.3167 99.7731 45.5129 99.7667 45.7101C99.7667 46.4454 99.3066 46.9317 98.7209 47.1303V47.1555C99.1486 47.3046 99.4028 47.7006 99.5346 48.2784C99.7155 49.0546 99.8483 49.5914 99.9623 49.8067H99.2218C99.1319 49.6492 99.0127 49.1712 98.8516 48.4769C98.6874 47.709 98.3914 47.4202 97.7419 47.395H97.0673V49.8109H96.352L96.3541 44.3141ZM97.0694 46.8487H97.8016C98.5661 46.8487 99.0566 46.4286 99.0566 45.792C99.0566 45.0735 98.5337 44.7595 97.7827 44.7511C97.5453 44.7446 97.3079 44.7668 97.0757 44.8172L97.0694 46.8487Z" fill="black"/>
</g>
<defs>
<linearGradient id="paint0_linear_247_663" x1="47.492" y1="-13.0084" x2="71.6401" y2="40.5183" gradientUnits="userSpaceOnUse">
<stop offset="0.01" stop-color="#0CA6E0"/>
<stop offset="0.52" stop-color="#292968"/>
</linearGradient>
<linearGradient id="paint1_linear_247_663" x1="47.492" y1="-13.0083" x2="71.6401" y2="40.5183" gradientUnits="userSpaceOnUse">
<stop offset="0.01" stop-color="#0CA6E0"/>
<stop offset="0.52" stop-color="#292968"/>
</linearGradient>
<linearGradient id="paint2_linear_247_663" x1="47.492" y1="-13.0084" x2="71.6401" y2="40.5183" gradientUnits="userSpaceOnUse">
<stop offset="0.01" stop-color="#0CA6E0"/>
<stop offset="0.52" stop-color="#292968"/>
</linearGradient>
<linearGradient id="paint3_linear_247_663" x1="47.492" y1="-13.0083" x2="71.6401" y2="40.5184" gradientUnits="userSpaceOnUse">
<stop offset="0.01" stop-color="#0CA6E0"/>
<stop offset="0.52" stop-color="#292968"/>
</linearGradient>
<linearGradient id="paint4_linear_247_663" x1="47.492" y1="-13.0083" x2="71.6401" y2="40.5184" gradientUnits="userSpaceOnUse">
<stop offset="0.01" stop-color="#0CA6E0"/>
<stop offset="0.52" stop-color="#292968"/>
</linearGradient>
<linearGradient id="paint5_linear_247_663" x1="47.492" y1="-13.0084" x2="71.6401" y2="40.5183" gradientUnits="userSpaceOnUse">
<stop offset="0.01" stop-color="#0CA6E0"/>
<stop offset="0.52" stop-color="#292968"/>
</linearGradient>
<clipPath id="clip0_247_663">
<rect width="114" height="50" fill="white"/>
</clipPath>
</defs>
</svg>
